# xmcd
#
# Track frame offsets: 
#        150
#        13290
#        25762
#        37315
#        50797
#        66495
#        78372
#        93600
#        110822
#        125867
#
# Disc length: 1856 seconds
#
# Revision: 5
# Processed by: cddbd v1.5.2PL0 Copyright (c) Steve Scherf et al.
# Submitted via: ExactAudioCopy v0.99pb4
#
DISCID=9a073e0a
DTITLE=Kenny Rodgers - Good Old Country
DYEAR=2000
DGENRE=Country
TTITLE0=Ruby Don't Take Your Love To Town
TTITLE1=Rueben James
TTITLE2=Me And Bobby McGee
TTITLE3=Shine On Ruby Mountain
TTITLE4=Tulsa Turnaround
TTITLE5=Elvira
TTITLE6=Conditions (Just Dropped In)
TTITLE7=Something's Burning
TTITLE8=Tell It All Brother
TTITLE9=But You Know That I Love You
EXTD=
EXTT0=
EXTT1=
EXTT2=
EXTT3=
EXTT4=
EXTT5=
EXTT6=
EXTT7=
EXTT8=
EXTT9=
PLAYORDER=
